<?xml version="1.0" encoding="UTF-8" standalone="no"?>
<svg xmlns="http://www.w3.org/2000/svg" version="1.0" width="580" height="580">
	<circle fill="none" stroke="#FFFFFF" stroke-width="50" stroke-miterlimit="10" cx="290.5" cy="289.3" r="251.5"/>
	<circle cx="290" cy="289.3" r="253"/>
	<path fill="#FFFFFF" d="M407.1,244.3c0-64.4-52.2-116.5-116.5-116.5s-116.5,52.2-116.5,116.5c0,1.1,0,2.2,0,3.3V442h233V244.5h0
	C407.1,244.4,407.1,244.4,407.1,244.3z"/>
	<path d="M305.3,277.6c0,2.3,0,4.1,0,5.9c0,22.8,0,45.5,0,68.3c0,11-6.9,17.8-16.8,16.9c-6.6-0.6-11.9-5.4-13.2-11.9
	c-0.4-2.2-0.5-4.5-0.5-6.8c0-22.3,0-44.6,0-66.9c0-1.6,0-3.2,0-5.5c-5,0-9.5,0-14,0c-10,0-20.1,0.1-30,0
	c-10.1-0.1-16.7-6.2-16.5-15.3c0.1-8.8,6.9-14.9,16.6-14.9c12.9,0,25.8,0,38.7,0c1.6,0,3.2,0,5.3,0c0-13.6,0-26.8,0-39.9
	c0-2.8,0.1-5.8,0.6-8.6c1.2-7,7.4-12.1,14.4-12.2c7.2-0.2,13.6,5,14.9,12.2c0.5,2.7,0.6,5.4,0.6,8.1c0.1,13.3,0,26.7,0,40.5
	c2.2,0,3.9,0,5.7,0c12.9,0,25.8,0,38.7,0c9.4,0,16,6.2,16.2,14.9c0.2,9-6.2,15.2-16,15.3c-13.1,0.1-26.1,0-39.2,0
	C309,277.6,307.4,277.6,305.3,277.6z"/>
</svg>