<?xml version="1.0" encoding="UTF-8" standalone="no"?>
<svg xmlns="http://www.w3.org/2000/svg" version="1.0" width="580" height="580">
	<circle fill="none" stroke="#FFFFFF" stroke-width="50" stroke-miterlimit="10" cx="290.5" cy="289.3" r="251.5"/>
	<circle fill="#0055AA" cx="290" cy="289.5" r="253"/>
	<path id="path3340" shape-rendering="auto" color-rendering="auto" image-rendering="auto" color-interpolation="sRGB" fill="#FFFFFF" d="
	M362.8,262.3h-29c-12.4-11-26.2-17.9-42.8-20.7v-35.9l-23.4-2.8l-23.4,2.8v34.5c-16.6,4.1-30.3,11-42.8,22.1h-88.3
	c-6.9,0-11,4.1-12.4,12.4v71.7c0,6.9,4.1,11,12.4,12.4h69c8.3,13.8,19.3,26.2,34.5,34.5s31.7,13.8,51,13.8s35.9-4.1,51-13.8
	c15.2-8.3,26.2-19.3,34.5-34.5h9.7c6.9,0,12.4,2.8,16.6,6.9s6.9,9.7,6.9,16.6s2.8,12.4,6.9,16.6s9.7,6.9,16.6,6.9h46.9
	c6.9,0,12.4-2.8,16.6-6.9c4.1-4.1,6.9-9.7,6.9-16.6c0-35.9-11-63.4-33.1-85.5C424.8,274.7,395.9,262.3,362.8,262.3z M161.4,190.5
	l106.2-11l106.2,11c8.3,0,12.4-4.1,13.8-12.4v-22.1c-1.4-8.3-5.5-12.4-13.8-12.4l-82.8,8.3v-20.7c0-6.9-4.1-11-12.4-12.4h-23.4
	c-6.9,1.4-11,4.1-11,12.4v20.7l-82.8-9.7c-8.3,0-12.4,4.1-13.8,12.4v22.1C149,186.4,154.5,190.5,161.4,190.5z"/>
</svg>