<?xml version="1.0" encoding="utf-8"?>
<svg version="1.1" id="Ebene_1" xmlns="http://www.w3.org/2000/svg" xmlns:xlink="http://www.w3.org/1999/xlink" x="0px" y="0px"
	 width="580px" height="580px" viewBox="0 0 580 580" style="enable-background:new 0 0 580 580;" xml:space="preserve">
<path d="M519,538.6c-152.3,0-304.7,0-457,0c-7.5-2.8-12.7-7.5-12.7-16.1c0-17,0-34,0.3-51c0.1-8.2,4-15.1,9.9-20.6
	c6.2-5.8,13.7-8.6,22.3-8.6c10.4,0,20.7,0,31.5,0c0-2.5,0-4.4,0-6.3c0-69.7,0-139.4,0.1-209.1c0-21.7,2.6-43.2,10.5-63.6
	c23.7-61.6,68-99.6,132.5-113.9c8.2-1.8,16.7-2.3,25.1-3.5c5.8,0,11.5,0,17.3,0c8.4,1.1,16.8,1.8,25.1,3.4
	c28.1,5.4,53.5,17.1,75.9,35c24.8,19.8,43,44.5,54.7,74.1c8.8,22.3,12.3,45.6,12.3,69.5c0,69.3,0,138.5,0,207.8c0,2,0,4.1,0,6.3
	c1.4,0.1,2.1,0.2,2.9,0.2c10.1,0,20.2-0.2,30.3,0.1c16.6,0.5,29.9,13.3,30.6,29.8c0.6,14.9-0.1,29.8,0.4,44.7
	C531.4,527,528.5,534.4,519,538.6z M434.5,442.1c0-2,0-3.4,0-4.8c0-70.4-0.1-140.8,0-211.2c0-19.6-3.2-38.5-10.6-56.7
	c-11.4-28.1-29.7-50.8-55-67.5c-30.1-19.8-63.1-27.1-98.8-22.3c-27.4,3.7-51.7,14.4-72.7,32.2c-34.7,29.6-51.9,67.5-51.9,113.1
	c0,70.7,0,141.4,0,212.1c0,1.7,0.2,3.4,0.2,5.1C242.2,442.1,338,442.1,434.5,442.1z M81.4,506.2c139.3,0,278.2,0,417,0
	c0-10.9,0-21.3,0-31.8c-139.2,0-278,0-417,0C81.4,485.1,81.4,495.5,81.4,506.2z"/>
<path d="M306.1,238.6c0,2.4,0,4.3,0,6.2c0,24.1,0,48.1,0,72.2c0,11.6-7.3,18.8-17.7,17.9c-7-0.6-12.6-5.7-13.9-12.6
	c-0.4-2.3-0.5-4.8-0.5-7.2c0-23.6,0-47.1,0-70.7c0-1.7,0-3.4,0-5.8c-5.3,0-10,0-14.8,0c-10.6,0-21.2,0.1-31.7,0
	c-10.7-0.1-17.6-6.5-17.4-16.2c0.1-9.3,7.3-15.7,17.5-15.7c13.6,0,27.3,0,40.9,0c1.7,0,3.4,0,5.6,0c0-14.4,0-28.3,0-42.2
	c0-3,0.1-6.1,0.6-9.1c1.3-7.4,7.8-12.8,15.2-12.9c7.6-0.2,14.4,5.3,15.7,12.9c0.5,2.8,0.6,5.7,0.6,8.6c0.1,14.1,0,28.2,0,42.8
	c2.3,0,4.1,0,6,0c13.6,0,27.3,0,40.9,0c9.9,0,16.9,6.5,17.1,15.7c0.2,9.5-6.6,16.1-16.9,16.2c-13.8,0.1-27.6,0-41.4,0
	C310.1,238.6,308.4,238.6,306.1,238.6z"/>
</svg>
