<?xml version="1.0" encoding="utf-8"?>
<svg xmlns="http://www.w3.org/2000/svg" version="1.0" width="580" height="580">
	<circle fill="none" stroke="#FFFFFF" stroke-width="50" stroke-miterlimit="10" cx="290.5" cy="289.3" r="251.5"/>
	<circle fill="#FF5500" cx="290" cy="289.5" r="253"/>
	<circle fill="none" stroke="#CC0000" stroke-width="19.2493" stroke-miterlimit="10" cx="290" cy="289.5" r="243.5"/>
	<path id="path4141_1_" fill="#FFFFFF" d="M195.7,218.1h13"/>
	<path fill="#FFFFFF" stroke="#CC0000" stroke-width="39" stroke-miterlimit="10" d="M265.5,326.8v91.2c0,6.8-4.1,10.9-10.9,10.9
		c-5.4,0-9.5-2.7-10.9-8.2c-2.7-5.4-5.4-9.5-10.9-12.2s-10.9-2.7-17.7-1.4c-5.4,2.7-10.9,5.4-12.2,10.9c-2.7,5.4-2.7,10.9-1.4,17.7
		c4.1,10.9,10.9,20.4,20.4,27.2c10.9,8.2,20.4,10.9,32.7,10.9c16.3,0,29.9-5.4,39.5-16.3c10.9-10.9,16.3-23.1,16.3-39.5v-91.2
		c-6.8-5.4-13.6-9.5-21.8-9.5C280.4,317.2,272.3,320,265.5,326.8z"/>
	<path fill="#FFFFFF" stroke="#CC0000" stroke-width="39" stroke-miterlimit="10" d="M491.3,311.8c-12.2-47.6-34-85.7-66.7-112.9
		s-70.8-43.5-112.9-49v-12.2c0-6.8-2.7-12.2-6.8-16.3c-4.1-4.1-9.5-6.8-16.3-6.8c-6.8,0-12.2,2.7-16.3,6.8
		c-4.1,4.1-6.8,9.5-6.8,16.3v12.2c-42.2,4.1-78.9,20.4-111.6,49c-32.7,27.2-55.8,65.3-66.7,112.9c0,4.1,1.4,6.8,4.1,9.5
		c2.7,2.7,5.4,1.4,9.5-1.4c17.7-19,36.7-27.2,55.8-24.5s36.7,19,55.8,50.3c4.1,6.8,9.5,6.8,13.6,0c6.8-13.6,15-24.5,25.9-35.4
		c8.2-9.5,20.4-15,36.7-16.3c12.2,0,23.1,4.1,32.7,10.9c9.5,6.8,16.3,15,20.4,21.8c5.4,6.8,8.2,12.2,9.5,16.3c0,1.4,1.4,1.4,1.4,1.4
		c4.1,6.8,9.5,6.8,13.6,0c17.7-31.3,36.7-47.6,55.8-50.3s36.7,5.4,55.8,24.5c4.1,2.7,8.2,4.1,10.9,1.4
		C490,318.6,491.3,315.9,491.3,311.8z"/>
	<path fill="#FFFFFF" d="M491.3,311.8c-12.2-47.6-34-85.7-66.7-112.9s-70.8-43.5-112.9-49v-12.2c0-6.8-2.7-12.2-6.8-16.3
		c-4.1-4.1-9.5-6.8-16.3-6.8c-6.8,0-12.2,2.7-16.3,6.8c-4.1,4.1-6.8,9.5-6.8,16.3v12.2c-42.2,4.1-78.9,20.4-111.6,49
		c-32.7,27.2-55.8,65.3-66.7,112.9c0,4.1,1.4,6.8,4.1,9.5c2.7,2.7,5.4,1.4,9.5-1.4c17.7-19,36.7-27.2,55.8-24.5s36.7,19,55.8,50.3
		c4.1,6.8,9.5,6.8,13.6,0c6.8-13.6,15-24.5,25.9-35.4c8.2-9.5,20.4-15,36.7-16.3c12.2,0,23.1,4.1,32.7,10.9
		c9.5,6.8,16.3,15,20.4,21.8c5.4,6.8,8.2,12.2,9.5,16.3c0,1.4,1.4,1.4,1.4,1.4c4.1,6.8,9.5,6.8,13.6,0
		c17.7-31.3,36.7-47.6,55.8-50.3s36.7,5.4,55.8,24.5c4.1,2.7,8.2,4.1,10.9,1.4C490,318.6,491.3,315.9,491.3,311.8z"/>
	<path fill="#FFFFFF" d="M265.5,326.8v91.2c0,6.8-4.1,10.9-10.9,10.9c-5.4,0-9.5-2.7-10.9-8.2c-2.7-5.4-5.4-9.5-10.9-12.2
		s-10.9-2.7-17.7-1.4c-5.4,2.7-10.9,5.4-12.2,10.9c-2.7,5.4-2.7,10.9-1.4,17.7c4.1,10.9,10.9,20.4,20.4,27.2
		c10.9,8.2,20.4,10.9,32.7,10.9c16.3,0,29.9-5.4,39.5-16.3c10.9-10.9,16.3-23.1,16.3-39.5v-91.2c-6.8-5.4-13.6-9.5-21.8-9.5
		C280.4,317.2,272.3,320,265.5,326.8z"/>
</svg>