<?xml version="1.0" encoding="UTF-8" standalone="no"?>
<svg xmlns="http://www.w3.org/2000/svg" version="1.0" width="580" height="580">
	<circle fill="none" stroke="#FFFFFF" stroke-width="50" stroke-miterlimit="10" cx="290.5" cy="289.3" r="251.5"/>
	<circle fill="#5500AA" cx="290" cy="289.3" r="253"/>
	<path id="bicycle" fill="#FFFFFF" d="M310.3,158.2c0.4-8.5,3.4-15.7,8.9-21.6c5.9-5.5,13.1-8.5,21.6-8.9c8.5,0.4,15.7,3.4,21.6,8.9
	c5.5,5.9,8.5,13.1,8.9,21.6c-0.4,8.5-3.4,15.6-8.9,21.6c-5.9,5.5-13.1,8.5-21.6,8.9c-8.5-0.4-15.6-3.4-21.6-8.9
	C313.7,173.8,310.7,166.6,310.3,158.2z M391.5,228.6c5.9,0.4,10.8,2.5,14.6,6.3c3.8,3.8,5.7,8.5,5.7,14c0,5.9-1.9,10.8-5.7,14.6
	c-3.8,3.8-8.7,5.7-14.6,5.7h-40.6c-4.7,0.4-8.9-1.1-12.7-4.4l-26-20.3l-38.1,31.1l27.3,17.8c5.9,4.2,8.9,9.9,8.9,17.1v81.2
	c0,5.9-1.9,10.8-5.7,14.6c-3.8,3.8-8.7,5.7-14.6,5.7s-10.8-1.9-14.6-5.7c-3.8-3.8-5.7-8.7-5.7-14.6v-70.4l-38.1-24.1
	c-10.6-7.6-16.1-17.1-16.5-28.6c-0.8-11.8,3.6-21.8,13.3-29.8l52.7-40.6c5.9-4.2,12.3-6.3,19-6.3c6.8,0,12.9,2.1,18.4,6.3l39.3,30.5
	h33.7V228.6z M249.4,371.3c-0.4,22.8-8.2,42.1-23.5,57.7c-15.7,15.2-34.9,23-57.7,23.5c-22.8-0.4-42.1-8.2-57.7-23.5
	c-15.2-15.7-23-34.9-23.5-57.7c0.4-22.8,8.2-42.1,23.5-57.7c15.7-15.2,34.9-23,57.7-23.5c22.8,0.4,42.1,8.2,57.7,23.5
	C241.1,329.3,249,348.5,249.4,371.3z M168.2,325.7c-13.1,0.4-23.9,4.9-32.4,13.3c-8.5,8.5-12.9,19.2-13.3,32.4
	c0.4,13.1,4.9,23.9,13.3,32.4c8.5,8.5,19.2,12.9,32.4,13.3c13.1-0.4,23.9-4.9,32.4-13.3c8.5-8.5,12.9-19.2,13.3-32.4
	c-0.4-13.1-4.9-23.9-13.3-32.4C192.1,330.5,181.3,326.1,168.2,325.7z M493,371.3c-0.4,22.8-8.2,42.1-23.5,57.7
	c-15.7,15.2-34.9,23-57.7,23.5c-22.8-0.4-42.1-8.2-57.7-23.5c-15.2-15.7-23-34.9-23.5-57.7c0.4-22.8,8.2-42.1,23.5-57.7
	c15.7-15.2,34.9-23,57.7-23.5c22.8,0.4,42.1,8.2,57.7,23.5C484.8,329.3,492.6,348.5,493,371.3z M411.8,325.7
	c-13.1,0.4-23.9,4.9-32.4,13.3c-8.5,8.5-12.9,19.2-13.3,32.4c0.4,13.1,4.9,23.9,13.3,32.4c8.5,8.5,19.2,12.9,32.4,13.3
	c13.1-0.4,23.9-4.9,32.4-13.3c8.5-8.5,12.9-19.2,13.3-32.4c-0.4-13.1-4.9-23.9-13.3-32.4C435.7,330.5,424.9,326.1,411.8,325.7z"/>
</svg>