<?xml version="1.0" encoding="UTF-8" standalone="no"?>
<svg xmlns="http://www.w3.org/2000/svg" version="1.0" width="580" height="580">
	<circle fill="none" stroke="#FFFFFF" stroke-width="50" stroke-miterlimit="10" cx="290.5" cy="289.3" r="251.5"/>
	<circle fill="#FF0055" cx="290.5" cy="289.3" r="253"/>
	<path fill="#FFFFFF" d="M163,164.8c7.8,0.4,12.7,4.4,14.8,12l0.6,7.2h259.1c6.6,0.4,11.7,3,15.4,7.8c3.7,4.8,4.9,10.4,3.7,16.8
	l-33.2,115c-3.3,8.8-9.6,13.4-19.1,13.8H209.1l5.5,28.8h189.6c9,0.8,13.9,5.6,14.8,14.4c-0.8,8.8-5.7,13.6-14.8,14.4H201.7
	c-7.4-0.4-12.1-4.2-14.2-11.4l-36.9-189.9h-32c-9-0.8-13.9-5.6-14.8-14.4c0.8-8.8,5.7-13.6,14.8-14.4L163,164.8L163,164.8z"/>
	<path fill="#FFFFFF" d="M419,449.4c-0.5,9.8-4,18.2-10.6,25.1c-7.1,6.4-15.6,9.8-25.7,10.3c-10.1-0.5-18.7-3.9-25.7-10.3
	c-6.6-6.9-10.1-15.2-10.6-25.1c0.5-9.8,4-18.2,10.6-25.1c7.1-6.4,15.6-9.8,25.7-10.3c10.1,0.5,18.7,3.9,25.7,10.3
	C415,431.2,418.5,439.6,419,449.4z"/>
	<path fill="#FFFFFF" d="M258,449.4c-0.5,9.8-4,18.2-10.6,25.1c-7.1,6.4-15.6,9.8-25.7,10.3c-10.1-0.5-18.7-3.9-25.7-10.3
	c-6.6-6.9-10.1-15.2-10.6-25.1c0.5-9.8,4-18.2,10.6-25.1c7.1-6.4,15.6-9.8,25.7-10.3c10.1,0.5,18.7,3.9,25.7,10.3
	C254,431.2,257.5,439.6,258,449.4z"/>
</svg>
