<?xml version="1.0" encoding="UTF-8" standalone="no"?>
<svg xmlns="http://www.w3.org/2000/svg" version="1.0" width="580" height="580">
 <metadata id="metadata2975"/>
 <path id="path4141" d="M 542,291 C 542,430.72804 428.72804,544 289,544 149.27196,544 36,430.72804 36,291 36,151.27196 149.27196,38 289,38 428.72804,38 542,151.27196 542,291 Z" mix-blend-mode="normal" solid-color="#000000" opacity="0.8" color-interpolation-filters="linearRGB" filter-gaussianBlur-deviation="0" color="#000000" image-rendering="auto" color-rendering="auto" stroke-width="64" isolation="auto" color-interpolation="sRGB" solid-opacity="1" fill="none" stroke-linejoin="round" filter-blend-mode="normal" stroke="#ffffff" shape-rendering="auto"/>
<path id="path3267" fill="#0000AA" d="M543,290c0,139.7-113.3,253-253,253S37,429.7,37,290S150.3,37,290,37S543,150.3,543,290z"/>
<path id="path4141_1_" fill="#FFFFFF" d="M195.7,218.1h13"/>
	<path id="path4139" fill="#FFFFFF" d="M328.8,97.2c-1.7-22.5-17.5-37.5-37.9-37.8c-22.1,1.7-37,17.8-37.3,37.8
		c1.7,21.6,17.6,36.9,37.3,37.1C312.8,132.8,328.5,117.3,328.8,97.2z"/>
	<path fill="#FFFFFF" d="M374.5,157.8c-8.9-10-20.4-14.8-35.1-15.7l-86.8-1.5c-11.5,0-21.7,4.1-31,12.4c-6.9,6.4-11.5,13.5-13.8,21.4
		l-31.8,105.9c-4.3,12.7,4.8,21.9,14.4,22.1c7.4,0,12.2-4.1,14.5-12.4l29-97h15.8l-47.2,172.2H246v134c0,12,7,17.9,18.5,17.9
		c11.5,0,18.5-6,18.5-17.9v-134h10.3l0-0.1l10.1,0v132.4c0,13.8,5.6,20.7,19.4,20.7c14.3,0,18.9-6.9,18.9-20.7V193.9h17.2v112.3
		c0,11.5,4.8,17.2,14.5,17.2c9.7,0,14.5-5.7,14.5-17.2V192.7C387.9,179.4,383.4,167.8,374.5,157.8z"/>
</svg>
