<?xml version="1.0" encoding="UTF-8" standalone="no"?>
<svg xmlns="http://www.w3.org/2000/svg" version="1.0" width="580" height="580">
	<circle fill="none" stroke="#FFFFFF" stroke-width="50" stroke-miterlimit="10" cx="290.5" cy="289.3" r="251.5"/>
	<circle fill="#0000AA" cx="290" cy="289.5" r="253"/>
	<path fill="#FFFFFF" d="M173.6,443c0,9.6,8,16.8,17.6,16.8h33.6c9.6,0,17.6-7.2,17.6-16.8V331.8h8c9.6,0,17.6-7.2,17.6-16.8v-76.8
	c0-18.4-16-34.4-34.4-34.4h-51.2c-18.4,0-34.4,16-34.4,34.4V315c0,9.6,8,16.8,17.6,16.8h8V443z"/>
	<path fill="#FFFFFF" d="M387.3,443v-85.6h27.2c12,0,20-11.2,16.8-22.4l-36-107.3c-4.8-14.4-17.6-24-32.8-24h-1.6
	c-15.2,0-28,9.6-32.8,24L292,335c-3.2,11.2,4.8,22.4,16.8,22.4H336V443c0,9.6,8,16.8,16.8,16.8h17.6
	C379.3,459.9,387.3,452.7,387.3,443z"/>
	<path fill="#FFFFFF" d="M208,186.9c19.2,0,34.4-15.2,34.4-34.4c0-18.4-15.2-33.6-34.4-33.6s-34.4,15.2-34.4,33.6
	C173.6,171.7,188.8,186.9,208,186.9z"/>
	<path fill="#FFFFFF" d="M361.7,186.9c19.2,0,34.4-15.2,34.4-34.4c0-18.4-15.2-33.6-34.4-33.6s-34.4,15.2-34.4,33.6
	C327.3,171.7,342.5,186.9,361.7,186.9z"/>
</svg>