<?xml version="1.0" encoding="iso-8859-1"?>
<!-- Uploaded to: SVG Repo, www.svgrepo.com, Generator: SVG Repo Mixer Tools -->
<!DOCTYPE svg PUBLIC "-//W3C//DTD SVG 1.1//EN" "http://www.w3.org/Graphics/SVG/1.1/DTD/svg11.dtd">
<svg fill="#000000" height="800px" width="800px" version="1.1" id="Capa_1" xmlns="http://www.w3.org/2000/svg" xmlns:xlink="http://www.w3.org/1999/xlink" 
	 viewBox="0 0 385.889 385.889" xml:space="preserve">
<g>
	<path d="M306.77,0H79.119c-5.523,0-10,4.477-10,10v365.889c0,5.523,4.477,10,10,10H306.77c5.523,0,10-4.477,10-10V10
		C316.77,4.477,312.293,0,306.77,0z M213.46,243.741h-14.236c-5.523,0-10,4.477-10,10c0,0.006,0.001,0.012,0.001,0.019h-7.652
		c0-0.006,0.001-0.012,0.001-0.019c0-5.523-4.477-10-10-10h-14.235c-5.523,0-10,4.477-10,10c0,0.006,0.001,0.012,0.001,0.019h-7.652
		c0-0.006,0.001-0.012,0.001-0.019c0-5.523-4.477-10-10-10h-14.235c-5.523,0-10,4.477-10,10c0,0.006,0.001,0.012,0.001,0.019H89.119
		v-21.793h149.509v21.793h-15.168c0-0.006,0.001-0.012,0.001-0.019C223.46,248.218,218.983,243.741,213.46,243.741z M238.627,78.728
		v31.08h-25.092V97.15c0-5.523-4.477-10-10-10s-10,4.477-10,10v12.657h-9.361V97.15c0-5.523-4.477-10-10-10s-10,4.477-10,10v12.657
		h-9.361V97.15c0-5.523-4.477-10-10-10s-10,4.477-10,10v12.657h-9.36V97.15c0-5.523-4.477-10-10-10s-10,4.477-10,10v12.657H89.119
		v-31.08H238.627z M203.536,184.166c-5.523,0-10,4.477-10,10v16.867c0,0.315,0.019,0.626,0.047,0.935h-3.52
		c0.029-0.308,0.047-0.619,0.047-0.935c0-5.523-4.477-10-10-10h-11.871c-5.523,0-10,4.477-10,10c0,0.315,0.019,0.626,0.047,0.935
		h-3.519c0.029-0.308,0.047-0.619,0.047-0.935v-16.867c0-5.523-4.477-10-10-10s-10,4.477-10,10v16.867
		c0,0.315,0.019,0.626,0.047,0.935h-9.455c0.029-0.308,0.047-0.619,0.047-0.935v-16.867c0-5.523-4.477-10-10-10s-10,4.477-10,10
		v16.867c0,0.315,0.019,0.626,0.047,0.935H89.119v-31.08h149.509v31.08h-25.139c0.029-0.308,0.047-0.619,0.047-0.935v-16.867
		C213.536,188.643,209.059,184.166,203.536,184.166z M238.627,129.807v31.08h-25.092v-15.229c0-5.523-4.477-10-10-10
		s-10,4.477-10,10v15.229h-9.361v-15.229c0-5.523-4.477-10-10-10s-10,4.477-10,10v15.229h-13.776
		c-0.783-4.742-4.891-8.362-9.854-8.362h-25.09c-4.964,0-9.071,3.62-9.854,8.362h-16.48v-31.08H238.627z M238.627,20v38.728H208.52
		c0.478-1.167,0.745-2.443,0.745-3.782c0-5.523-4.477-10-10-10h-25.091c-5.523,0-10,4.477-10,10c0,1.339,0.268,2.615,0.745,3.782
		h-15.122c0.478-1.167,0.745-2.443,0.745-3.782c0-5.523-4.477-10-10-10h-25.09c-5.523,0-10,4.477-10,10
		c0,1.339,0.268,2.615,0.745,3.782h-17.08V20H238.627z M296.77,365.889H89.119V273.76h159.509c5.523,0,10-4.477,10-10V20h38.143
		V365.889z"/>
	<path d="M241.075,293.922h-96.261c-5.523,0-10,4.477-10,10v30.009c0,5.523,4.477,10,10,10h96.261c5.523,0,10-4.477,10-10v-30.009
		C251.075,298.399,246.598,293.922,241.075,293.922z M231.075,323.932h-76.261v-10.009h76.261V323.932z"/>
	<path d="M278.543,119.213c5.523,0,10-4.477,10-10V96.668c0-5.523-4.477-10-10-10s-10,4.477-10,10v12.545
		C268.543,114.736,273.02,119.213,278.543,119.213z"/>
	<path d="M278.543,155.175c5.523,0,10-4.477,10-10V132.63c0-5.523-4.477-10-10-10s-10,4.477-10,10v12.545
		C268.543,150.698,273.02,155.175,278.543,155.175z"/>
</g>
</svg>